<?xml version="1.0" encoding="utf-8"?>
<!DOCTYPE svg PUBLIC "-//W3C//DTD SVG 1.1//EN" "http://www.w3.org/Graphics/SVG/1.1/DTD/svg11.dtd">
<svg version="1.1" id="signature" xmlns="http://www.w3.org/2000/svg" xmlns:xlink="http://www.w3.org/1999/xlink" x="0px" y="0px"
	 width="240px" height="70px" viewBox="0 0 240 70" enable-background="new 0 0 240 70" xml:space="preserve">
<g>
	<path d="M26.121,32.923c0.056,0.081,0.078,0.194,0.065,0.339c-0.012,0.145-0.052,0.307-0.119,0.486
		c-0.068,0.18-0.158,0.366-0.271,0.557c-0.111,0.191-0.24,0.379-0.384,0.564c-0.048,0.058-0.098,0.122-0.15,0.191
		c-0.052,0.07-0.105,0.133-0.161,0.191c-0.08,0.093-0.194,0.223-0.342,0.391c-0.148,0.168-0.368,0.422-0.66,0.765
		c-0.292,0.342-0.674,0.799-1.146,1.372s-1.075,1.31-1.812,2.206c-0.735,0.898-1.623,1.984-2.663,3.259
		c-1.039,1.273-2.267,2.791-3.683,4.552c-0.024,0.069-0.05,0.133-0.078,0.191c-0.028,0.058-0.054,0.115-0.078,0.174
		c-0.096,0.242-0.184,0.48-0.264,0.712c-0.144,0.358-0.29,0.7-0.438,1.025c-0.148,0.324-0.299,0.625-0.45,0.903
		c-0.168,0.301-0.348,0.591-0.54,0.869c-0.191,0.277-0.408,0.526-0.647,0.746c-0.136,0.116-0.277,0.209-0.426,0.278
		c-0.148,0.07-0.302,0.104-0.462,0.104c-0.191,0-0.359-0.041-0.504-0.122h-0.012c-0.024-0.022-0.059-0.049-0.103-0.078
		c-0.044-0.028-0.086-0.055-0.126-0.078l0.013-0.017c-0.04-0.023-0.074-0.064-0.103-0.122c-0.027-0.058-0.046-0.156-0.054-0.296
		c-0.008-0.069,0-0.153,0.024-0.252c0.023-0.098,0.056-0.19,0.096-0.278c0.04-0.086,0.082-0.155,0.126-0.207
		c0.044-0.053,0.086-0.067,0.126-0.045c0.168-0.207,0.342-0.425,0.521-0.651c0.181-0.226,0.361-0.454,0.546-0.686
		c0.296-0.371,0.58-0.727,0.852-1.068c0.272-0.342,0.536-0.681,0.792-1.017l0.54-0.678c0.096-0.267,0.188-0.535,0.275-0.808
		s0.176-0.554,0.264-0.843c0.296-0.997,0.59-2.051,0.882-3.163c0.292-1.111,0.57-2.264,0.834-3.457c0.04-0.174,0.08-0.35,0.12-0.53
		c0.04-0.179,0.079-0.361,0.12-0.547c-0.264,0.231-0.534,0.463-0.81,0.694c-0.276,0.232-0.555,0.459-0.834,0.678h0.012
		c-1.127,0.893-2.138,1.576-3.029,2.051c-0.892,0.476-1.717,0.806-2.477,0.99h0.012c-0.424,0.115-0.872,0.174-1.344,0.174
		c-0.144,0-0.29-0.006-0.438-0.018s-0.29-0.035-0.426-0.069c-0.344-0.093-0.698-0.252-1.062-0.478
		c-0.364-0.226-0.687-0.536-0.966-0.931c-0.28-0.394-0.516-0.874-0.708-1.44c-0.191-0.568-0.328-1.182-0.407-1.842
		c-0.032-0.244-0.055-0.504-0.066-0.783c-0.012-0.277-0.018-0.561-0.018-0.851c0-0.452,0.018-0.913,0.054-1.382
		s0.086-0.952,0.149-1.451c0.112-0.834,0.278-1.711,0.498-2.632s0.502-1.908,0.846-2.962c0.344-1.031,0.758-2.1,1.242-3.206
		c0.483-1.105,1.085-2.238,1.805-3.396c0.728-1.17,1.5-2.178,2.315-3.023c0.815-0.846,1.663-1.471,2.543-1.877
		c0.736-0.336,1.443-0.504,2.123-0.504c0.088,0,0.175,0.003,0.259,0.009c0.084,0.006,0.169,0.014,0.258,0.026
		c0.224,0.035,0.445,0.101,0.666,0.2c0.22,0.098,0.434,0.252,0.641,0.46c0.216,0.22,0.384,0.495,0.504,0.825
		s0.188,0.664,0.204,0.999c0.016,0.302,0.015,0.597-0.006,0.886s-0.054,0.568-0.102,0.834c-0.097,0.521-0.208,1.008-0.336,1.459
		c-0.128,0.44-0.265,0.857-0.408,1.251c-0.144,0.394-0.288,0.771-0.432,1.129c-0.305,0.741-0.598,1.41-0.882,2.007
		s-0.554,1.144-0.81,1.642c-0.52,1.019-0.978,1.876-1.373,2.571c-0.396,0.695-0.734,1.28-1.015,1.755
		c-0.247,0.44-0.451,0.793-0.611,1.06s-0.284,0.463-0.372,0.59v-0.017c-0.128,0.208-0.262,0.391-0.401,0.547
		c-0.141,0.156-0.272,0.278-0.396,0.365c-0.124,0.087-0.235,0.137-0.336,0.148c-0.1,0.012-0.178-0.017-0.233-0.087
		c-0.064-0.081-0.094-0.194-0.09-0.339c0.004-0.144,0.029-0.31,0.077-0.495c0.049-0.186,0.12-0.382,0.217-0.591
		c0.096-0.208,0.207-0.417,0.336-0.625c0.031-0.058,0.065-0.113,0.102-0.166c0.036-0.052,0.078-0.113,0.126-0.182
		c0.104-0.162,0.256-0.4,0.456-0.712l0.156-0.227c0.184-0.301,0.419-0.683,0.707-1.146c0.288-0.463,0.636-1.054,1.044-1.772
		c0.24-0.417,0.496-0.878,0.768-1.382s0.563-1.074,0.876-1.711v0.017c0.151-0.301,0.308-0.623,0.468-0.964
		c0.159-0.341,0.324-0.727,0.492-1.155c0.159-0.382,0.313-0.785,0.462-1.208c0.147-0.423,0.289-0.895,0.425-1.416
		c0.064-0.231,0.118-0.472,0.162-0.721s0.074-0.501,0.09-0.756c0.017-0.231,0.006-0.466-0.029-0.704
		c-0.036-0.237-0.11-0.437-0.223-0.6c-0.111-0.174-0.253-0.307-0.425-0.399c-0.173-0.093-0.358-0.157-0.559-0.191
		c-0.088-0.023-0.18-0.035-0.275-0.035c-0.097,0-0.188,0-0.276,0c-0.12,0-0.25,0.006-0.39,0.017
		c-0.14,0.012-0.278,0.029-0.414,0.052c-0.448,0.116-0.928,0.31-1.439,0.582c-0.512,0.272-0.983,0.6-1.415,0.982
		c-0.464,0.406-0.92,0.883-1.368,1.434c-0.447,0.55-0.888,1.167-1.319,1.85v-0.017c-0.8,1.263-1.461,2.514-1.985,3.753
		c-0.523,1.24-0.958,2.438-1.302,3.597c-0.344,1.147-0.605,2.235-0.785,3.266c-0.181,1.032-0.29,2.005-0.33,2.919
		c-0.008,0.127-0.013,0.246-0.013,0.356s0,0.229,0,0.356c0,0.742,0.055,1.425,0.162,2.05c0.108,0.626,0.278,1.159,0.511,1.599
		c0.136,0.256,0.281,0.475,0.438,0.661C6.07,40.423,6.232,40.58,6.4,40.707H6.388c0.176,0.127,0.354,0.223,0.534,0.287
		c0.18,0.063,0.361,0.112,0.545,0.147c0.089,0.022,0.177,0.034,0.265,0.034s0.176,0,0.264,0c0.271,0,0.54-0.026,0.804-0.078
		c0.265-0.052,0.536-0.124,0.815-0.218v0.018c0.336-0.115,0.687-0.26,1.05-0.434c0.364-0.174,0.758-0.383,1.182-0.625h-0.012
		c0.416-0.244,0.838-0.514,1.266-0.809c0.428-0.296,0.882-0.629,1.361-0.999c0.248-0.185,0.502-0.383,0.762-0.591
		c0.26-0.209,0.53-0.43,0.81-0.66c0.016-0.023,0.055-0.061,0.114-0.113c0.06-0.052,0.126-0.113,0.198-0.183l0.552-0.469h-0.013
		c0.017-0.023,0.026-0.032,0.03-0.026c0.004,0.006,0.014-0.002,0.03-0.025c0.008-0.012,0.02-0.024,0.036-0.035
		c0.016-0.012,0.025-0.02,0.029-0.026c0.005-0.006,0.015-0.015,0.03-0.026l0.156-0.104c0.031-0.046,0.06-0.081,0.084-0.104
		c0.023-0.034,0.067-0.075,0.132-0.121l0.18-0.017c0.176,0.197,0.288,0.322,0.336,0.374s0.068,0.078,0.06,0.078
		c-0.008,0-0.023-0.008-0.048-0.026c-0.023-0.017-0.012,0.009,0.036,0.079l-0.024,0.243l-0.023,0.087
		c-0.008-0.012-0.012-0.024-0.012-0.034l-0.061,0.346l0.036-0.068c-0.016,0.059-0.03,0.119-0.042,0.182
		c-0.012,0.064-0.025,0.125-0.042,0.183c-0.296,1.321-0.6,2.583-0.911,3.788c-0.312,1.205-0.604,2.276-0.876,3.215
		c-0.08,0.266-0.132,0.445-0.156,0.538c-0.023,0.093-0.042,0.165-0.054,0.218c-0.012,0.052-0.03,0.112-0.054,0.183
		c-0.024,0.069-0.072,0.213-0.145,0.434c0.848-1.077,1.604-2.042,2.268-2.893c0.663-0.852,1.258-1.61,1.781-2.276
		s0.979-1.252,1.367-1.754c0.388-0.504,0.728-0.948,1.021-1.33c0.292-0.383,0.543-0.715,0.755-0.999
		c0.212-0.284,0.402-0.536,0.57-0.756c0.231-0.312,0.451-0.596,0.66-0.851c0.207-0.255,0.427-0.533,0.659-0.834
		c0.144-0.185,0.29-0.342,0.438-0.469c0.148-0.127,0.286-0.226,0.414-0.295c0.128-0.069,0.244-0.102,0.348-0.096
		C25.997,32.798,26.073,32.842,26.121,32.923z M12.554,50.802c0.071-0.128,0.144-0.252,0.216-0.374
		c0.072-0.121,0.144-0.246,0.216-0.373c-0.12,0.162-0.248,0.318-0.384,0.469s-0.264,0.307-0.384,0.47
		c-0.064,0.069-0.124,0.142-0.18,0.217s-0.112,0.147-0.168,0.218c-0.048,0.058-0.095,0.109-0.138,0.155
		c-0.045,0.047-0.087,0.099-0.126,0.156c0.088-0.022,0.175-0.068,0.264-0.138h-0.012c0.136-0.104,0.26-0.224,0.371-0.356
		C12.342,51.111,12.45,50.964,12.554,50.802z"/>
	<path d="M24.669,42.166c-0.088-0.115-0.144-0.258-0.167-0.426c-0.024-0.168-0.035-0.33-0.03-0.486
		c0.004-0.156,0.018-0.295,0.042-0.417c0.023-0.121,0.048-0.199,0.071-0.234v0.018c0.024-0.035,0.086-0.059,0.187-0.07
		c0.1-0.011,0.214-0.008,0.342,0.01c0.128,0.017,0.256,0.058,0.384,0.121s0.231,0.153,0.312,0.269
		c0.08,0.116,0.126,0.247,0.139,0.392c0.012,0.146,0.008,0.284-0.013,0.417c-0.02,0.134-0.05,0.252-0.09,0.356
		c-0.04,0.104-0.071,0.173-0.096,0.208s-0.08,0.067-0.168,0.096c-0.088,0.029-0.188,0.044-0.3,0.044
		c-0.112,0-0.224-0.021-0.336-0.062S24.741,42.281,24.669,42.166z"/>
	<path d="M74.392,24.096c0.032,0.22-0.053,0.438-0.251,0.652c-0.2,0.214-0.468,0.35-0.804,0.408
		c-0.08,0.012-0.149,0.017-0.211,0.017c-0.06,0-0.146,0-0.258,0h-0.228c-0.088,0.012-0.195,0.018-0.318,0.018
		c-0.125,0-0.254,0-0.39,0h-0.421c-0.383,0-0.879-0.018-1.486-0.052c-0.608-0.035-1.36-0.107-2.255-0.217
		c-0.896-0.11-1.954-0.278-3.173-0.504c-1.22-0.226-2.639-0.541-4.254-0.947c-0.062-0.011-0.117-0.026-0.161-0.043
		c-0.044-0.017-0.085-0.029-0.12-0.035c-0.036-0.006-0.073-0.014-0.114-0.026c-0.04-0.011-0.097-0.029-0.168-0.052
		c-0.079,0.753-0.171,1.607-0.276,2.563c-0.104,0.956-0.23,2.1-0.383,3.432c-0.096,0.811-0.202,1.682-0.317,2.615
		c-0.117,0.932-0.255,1.932-0.414,2.997c-0.161,1.066-0.349,2.207-0.564,3.422c-0.063,0.303-0.128,0.606-0.191,0.914
		c-0.064,0.307-0.137,0.616-0.217,0.928v-0.016c-0.071,0.335-0.163,0.659-0.275,0.973c-0.063,0.162-0.132,0.327-0.204,0.494
		c-0.072,0.168-0.164,0.328-0.275,0.479c-0.072,0.093-0.16,0.162-0.265,0.208c-0.104,0.047-0.199,0.058-0.287,0.035
		c-0.08-0.023-0.152-0.063-0.216-0.122c-0.064-0.058-0.129-0.115-0.192-0.174c-0.096-0.104-0.182-0.214-0.258-0.33
		c-0.076-0.115-0.146-0.237-0.21-0.364l-0.012-0.018c-0.009,0-0.013-0.006-0.013-0.018c-0.128-0.231-0.246-0.472-0.354-0.721
		c-0.108-0.249-0.214-0.507-0.318-0.772c-0.184-0.476-0.363-0.947-0.539-1.416c-0.176-0.47-0.332-0.914-0.468-1.33
		c-0.209-0.614-0.402-1.19-0.582-1.729c-0.18-0.539-0.351-1.051-0.51-1.537c-0.064-0.209-0.128-0.412-0.192-0.608
		c-0.063-0.197-0.128-0.394-0.191-0.591v0.018c-0.416-1.263-0.778-2.357-1.086-3.284s-0.598-1.766-0.869-2.52
		c-0.272-0.752-0.54-1.479-0.805-2.18c-0.264-0.701-0.56-1.451-0.887-2.25v0.018c-0.137-0.255-0.303-0.565-0.498-0.93
		c-0.196-0.365-0.382-0.735-0.559-1.112c-0.175-0.376-0.325-0.73-0.449-1.06s-0.181-0.593-0.168-0.791
		c0.012-0.197,0.11-0.295,0.294-0.295s0.496,0.145,0.936,0.435c0.136,0.093,0.3,0.163,0.492,0.208
		c0.191,0.046,0.371,0.099,0.539,0.156c0.097,0.035,0.194,0.069,0.294,0.104c0.101,0.035,0.202,0.069,0.306,0.104
		c0.744,0.255,1.424,0.484,2.04,0.687c0.615,0.203,1.184,0.388,1.703,0.556c0.521,0.168,1.004,0.319,1.451,0.452
		c0.448,0.134,0.872,0.258,1.272,0.374c0.271,0.081,0.523,0.153,0.755,0.217c0.232,0.064,0.46,0.125,0.684,0.183
		c0.225,0.058,0.448,0.116,0.673,0.174c0.223,0.058,0.467,0.122,0.731,0.191c0.104-1.355,0.178-2.36,0.222-3.014
		c0.045-0.655,0.073-1.069,0.091-1.243c0.039-0.452,0.125-0.825,0.258-1.121c0.132-0.295,0.276-0.432,0.438-0.408
		c0.159,0.023,0.28,0.203,0.359,0.539c0.08,0.336,0.101,0.73,0.06,1.182l-0.106,1.094c-0.032,0.301-0.075,0.698-0.128,1.19
		c-0.051,0.493-0.117,1.138-0.196,1.938c0,0.023-0.002,0.038-0.007,0.043c-0.004,0.006-0.005,0.021-0.005,0.044
		c0.062,0.023,0.127,0.038,0.191,0.043c0.062,0.006,0.127,0.021,0.191,0.043c0.064,0.024,0.133,0.038,0.204,0.044
		c0.072,0.006,0.139,0.02,0.203,0.043h-0.012c1.297,0.302,2.443,0.539,3.442,0.713c1,0.173,1.884,0.304,2.652,0.391
		c0.768,0.087,1.431,0.145,1.99,0.174c0.561,0.029,1.04,0.043,1.44,0.043h0.349c0.304-0.012,0.562-0.023,0.778-0.035
		c0.216-0.011,0.409-0.029,0.577-0.052h-0.014c0.049-0.011,0.097-0.02,0.145-0.026c0.049-0.005,0.1-0.008,0.156-0.008
		c0.088-0.011,0.171-0.021,0.253-0.026c0.079-0.005,0.162-0.02,0.251-0.043c0.088-0.012,0.175-0.023,0.258-0.035
		c0.085-0.011,0.175-0.029,0.27-0.052c0.304-0.058,0.568-0.038,0.793,0.061C74.232,23.7,74.359,23.865,74.392,24.096z
		 M58.784,23.523c0-0.07,0.002-0.119,0.007-0.147c0.004-0.029,0.006-0.058,0.006-0.087c0-0.029,0-0.058,0-0.087
		c0-0.029,0.005-0.072,0.012-0.13c-0.679-0.162-1.396-0.336-2.146-0.521c-0.752-0.185-1.54-0.382-2.363-0.59
		c-0.576-0.151-1.166-0.31-1.77-0.478s-1.229-0.35-1.877-0.547c-0.137-0.035-0.269-0.072-0.396-0.113
		c-0.128-0.041-0.26-0.084-0.396-0.131c-0.192-0.058-0.386-0.115-0.582-0.173c-0.196-0.058-0.397-0.116-0.605-0.174h0.023
		l-0.06-0.018l0.072,0.157l-0.013-0.018c0.089,0.186,0.179,0.38,0.271,0.582c0.092,0.203,0.178,0.402,0.258,0.6
		c0.016,0.046,0.034,0.096,0.054,0.147c0.021,0.052,0.038,0.096,0.054,0.13l-0.012-0.017c0.176,0.452,0.338,0.877,0.485,1.277
		c0.148,0.399,0.282,0.779,0.402,1.138c0.2,0.579,0.384,1.138,0.552,1.677c0.168,0.538,0.336,1.074,0.504,1.607
		c0.024,0.093,0.06,0.211,0.108,0.356c0.048,0.145,0.088,0.264,0.119,0.356c0.208,0.684,0.44,1.442,0.696,2.276
		c0.256,0.833,0.56,1.807,0.912,2.919c0.016,0.069,0.037,0.145,0.065,0.226c0.028,0.082,0.054,0.157,0.078,0.226
		c0.16,0.499,0.336,1.034,0.527,1.608c0.192,0.574,0.4,1.178,0.624,1.815c0.136,0.359,0.275,0.733,0.42,1.121
		c0.144,0.389,0.3,0.785,0.468,1.19c0.088,0.208,0.18,0.414,0.276,0.617c0.096,0.202,0.195,0.385,0.3,0.547
		c0.063,0.116,0.13,0.229,0.198,0.338c0.067,0.11,0.105,0.16,0.113,0.148c0.056-0.058,0.104-0.136,0.145-0.234
		c0.04-0.099,0.079-0.194,0.119-0.287c0.048-0.127,0.089-0.246,0.12-0.356c0.032-0.109,0.061-0.217,0.084-0.321
		c0.064-0.267,0.124-0.521,0.18-0.765c0.057-0.243,0.108-0.48,0.156-0.711c0.096-0.498,0.182-0.982,0.258-1.452
		s0.146-0.94,0.21-1.416c0.136-0.926,0.254-1.804,0.354-2.632c0.1-0.828,0.193-1.625,0.281-2.389
		c0.136-1.263,0.256-2.444,0.359-3.545c0.104-1.1,0.197-2.079,0.277-2.936v0.018c0.015-0.139,0.026-0.281,0.035-0.426
		s0.021-0.281,0.035-0.408V23.523z"/>
	<path d="M100.662,32.958c0.088,0.185,0.058,0.451-0.09,0.799c-0.148,0.347-0.374,0.683-0.678,1.008
		c-0.017,0.011-0.042,0.034-0.078,0.068c-0.035,0.035-0.069,0.064-0.102,0.087h0.012c-0.072,0.07-0.158,0.15-0.258,0.244
		c-0.101,0.092-0.23,0.214-0.39,0.365c-0.232,0.208-0.546,0.49-0.941,0.843c-0.396,0.354-0.878,0.772-1.446,1.26
		c-0.304,0.254-0.647,0.529-1.031,0.825c-0.385,0.296-0.812,0.61-1.283,0.946c-0.456,0.324-0.976,0.663-1.56,1.017
		s-1.216,0.692-1.896,1.017c-0.359,0.162-0.728,0.315-1.104,0.461c-0.376,0.145-0.772,0.269-1.188,0.373
		c-0.304,0.069-0.622,0.127-0.954,0.174c-0.332,0.046-0.678,0.069-1.037,0.069c-0.112,0-0.234,0-0.366,0s-0.254-0.012-0.366-0.034
		c-0.496-0.047-1.001-0.163-1.517-0.348c-0.517-0.186-1.021-0.464-1.519-0.834c-0.504-0.371-0.983-0.843-1.439-1.416
		c-0.455-0.574-0.863-1.242-1.224-2.008c-0.159-0.347-0.308-0.699-0.443-1.06c-0.136-0.358-0.26-0.713-0.372-1.06
		c-0.048-0.174-0.096-0.35-0.144-0.53c-0.049-0.179-0.092-0.356-0.133-0.529l-0.071-0.348c-0.376,0.336-0.733,0.663-1.074,0.981
		c-0.34,0.319-0.669,0.628-0.989,0.93c-0.704,0.66-1.348,1.274-1.932,1.842c-0.583,0.568-1.127,1.111-1.631,1.633
		c-0.257,0.255-0.498,0.502-0.726,0.738c-0.229,0.238-0.446,0.473-0.654,0.704c-0.032,0.023-0.066,0.056-0.102,0.096
		c-0.036,0.04-0.066,0.072-0.09,0.096c-0.065,0.058-0.123,0.116-0.175,0.174s-0.138,0.156-0.258,0.295
		c-0.032,0.035-0.06,0.063-0.084,0.087c-0.016,0.023-0.023,0.043-0.023,0.061s-0.004,0.038-0.012,0.062
		c0,0.011-0.009,0.041-0.024,0.087c-0.017,0.046-0.038,0.09-0.066,0.13s-0.063,0.072-0.107,0.096
		c-0.045,0.022-0.095,0.018-0.15-0.018l-0.06,0.104l-0.336-0.504l0.012-0.191l0.012-0.365l0.049-0.034
		c0.015-0.012,0.031-0.02,0.047-0.025c0.017-0.006,0.032-0.021,0.049-0.044l-0.12,0.069l0.071-0.104l0.049-0.053
		c0.176-0.579,0.338-1.112,0.485-1.599c0.148-0.486,0.294-0.967,0.438-1.442c0.111-0.37,0.22-0.729,0.323-1.077
		c0.104-0.348,0.208-0.695,0.312-1.042c0.056-0.186,0.102-0.339,0.139-0.46c0.035-0.123,0.069-0.238,0.102-0.348
		c0.031-0.109,0.066-0.231,0.102-0.365c0.036-0.133,0.086-0.304,0.15-0.512c-0.089,0-0.177-0.021-0.264-0.061
		c-0.089-0.04-0.148-0.101-0.181-0.183c-0.072-0.197-0.028-0.454,0.132-0.773c0.159-0.318,0.372-0.634,0.636-0.947
		c0.04-0.046,0.073-0.087,0.103-0.122c0.028-0.035,0.058-0.07,0.09-0.104c0.023-0.024,0.06-0.063,0.107-0.122
		c0.048-0.058,0.097-0.116,0.145-0.174c0.32-1.054,0.688-2.241,1.103-3.562c0.416-1.321,0.908-2.878,1.477-4.674
		c0.208-0.672,0.41-1.321,0.605-1.946c0.196-0.625,0.386-1.216,0.569-1.772c0.448-1.401,0.874-2.736,1.278-4.005
		c0.403-1.268,0.757-2.372,1.061-3.31c0.009-0.023,0.017-0.049,0.025-0.078c0.007-0.029,0.016-0.055,0.023-0.079
		c0.104-0.312,0.202-0.62,0.294-0.92c0.092-0.301,0.189-0.603,0.294-0.904v0.018c0.048-0.162,0.098-0.322,0.15-0.478
		c0.052-0.156,0.104-0.31,0.161-0.46l0.072-0.208c0.016-0.035,0.033-0.078,0.054-0.13c0.02-0.052,0.038-0.102,0.055-0.147
		c0.008-0.012,0.02-0.041,0.035-0.087l0.036-0.07c0.009-0.058,0.036-0.121,0.084-0.191c0.009-0.011,0.013-0.021,0.013-0.026
		c0-0.005,0.003-0.014,0.012-0.026l-0.048,0.087c0.007-0.035,0.029-0.075,0.065-0.122s0.07-0.087,0.103-0.122
		c0.039-0.046,0.094-0.093,0.161-0.139c0.068-0.046,0.146-0.058,0.234-0.035h-0.024c0.112,0,0.206,0.052,0.282,0.156
		s0.126,0.203,0.149,0.296l-0.012-0.018c0.04,0.139,0.066,0.267,0.078,0.382s0.018,0.22,0.018,0.312
		c0.009,0.163,0.009,0.322,0,0.478c-0.008,0.157-0.02,0.304-0.035,0.443c0,0.035-0.002,0.076-0.006,0.122
		c-0.005,0.046-0.006,0.087-0.006,0.122c-0.032,0.324-0.078,0.678-0.139,1.06c-0.06,0.382-0.126,0.788-0.197,1.216
		c-0.232,1.263-0.48,2.43-0.744,3.5c-0.265,1.072-0.523,2.077-0.78,3.015c-0.264,0.915-0.52,1.761-0.768,2.537
		c-0.248,0.776-0.487,1.494-0.72,2.154c-0.472,1.321-0.901,2.421-1.289,3.302c-0.388,0.88-0.734,1.622-1.038,2.224
		c-0.296,0.591-0.556,1.075-0.779,1.451c-0.224,0.376-0.424,0.703-0.6,0.981c-0.112,0.174-0.223,0.336-0.33,0.486
		c-0.107,0.151-0.218,0.302-0.33,0.452c-0.231,0.729-0.443,1.399-0.636,2.006c-0.191,0.608-0.376,1.182-0.552,1.721
		s-0.347,1.057-0.51,1.555c-0.164,0.498-0.33,0.996-0.498,1.494c0.304-0.301,0.626-0.623,0.966-0.965
		c0.34-0.341,0.706-0.703,1.098-1.086c0.447-0.439,0.93-0.906,1.445-1.398c0.516-0.492,1.086-1.034,1.709-1.624
		c0.121-0.104,0.24-0.211,0.36-0.322s0.244-0.228,0.372-0.356c0.04-0.035,0.078-0.069,0.113-0.104
		c0.037-0.035,0.074-0.07,0.114-0.104c0.088-0.081,0.177-0.159,0.265-0.234c0.087-0.076,0.176-0.154,0.264-0.235h-0.013
		c0.017-0.023,0.032-0.037,0.049-0.043c0.016-0.005,0.032-0.02,0.048-0.043l-0.013,0.018c0.072-0.069,0.148-0.133,0.229-0.191
		l-0.036,0.035c0.096-0.011,0.17-0.04,0.222-0.086c0.052-0.047,0.099-0.07,0.139-0.07c0.039,0,0.081,0.041,0.125,0.122
		c0.044,0.082,0.106,0.232,0.186,0.452c0,0.012,0.003,0.021,0.007,0.025c0.004,0.007,0.006,0.015,0.006,0.026v-0.035l0.036,0.208
		c0.112,0.556,0.262,1.124,0.449,1.703c0.188,0.58,0.414,1.141,0.678,1.686c0.265,0.556,0.561,1.054,0.888,1.494
		c0.328,0.439,0.677,0.822,1.045,1.146c0.359,0.324,0.731,0.585,1.115,0.781c0.384,0.197,0.771,0.349,1.163,0.452h-0.012
		c0.256,0.058,0.507,0.104,0.756,0.139c0.248,0.035,0.488,0.053,0.72,0.053c0.512,0,0.997-0.053,1.457-0.156
		c0.46-0.104,0.906-0.231,1.338-0.383c0.632-0.22,1.226-0.479,1.781-0.782c0.556-0.301,1.074-0.607,1.553-0.92
		c0.465-0.302,0.906-0.608,1.326-0.921c0.42-0.313,0.802-0.608,1.146-0.887c0.704-0.579,1.297-1.097,1.781-1.555
		c0.484-0.458,0.894-0.849,1.229-1.173c0.336-0.324,0.593-0.576,0.769-0.756c0.175-0.18,0.3-0.31,0.371-0.391
		c0.152-0.15,0.305-0.278,0.456-0.382c0.152-0.104,0.292-0.179,0.42-0.226c0.128-0.045,0.239-0.06,0.336-0.043
		C100.543,32.81,100.614,32.865,100.662,32.958z M79.466,15.774c-0.137,0.44-0.273,0.892-0.414,1.355
		c-0.14,0.463-0.278,0.933-0.414,1.407c-0.479,1.587-0.976,3.24-1.487,4.96c-0.512,1.721-1.06,3.53-1.644,5.43
		c0.265-0.486,0.552-1.057,0.864-1.711c0.312-0.654,0.647-1.427,1.007-2.319c0.28-0.707,0.567-1.482,0.864-2.328
		c0.296-0.846,0.604-1.778,0.924-2.797c0.304-1.02,0.611-2.146,0.924-3.379c0.312-1.234,0.6-2.551,0.863-3.953
		c0.063-0.359,0.124-0.735,0.18-1.129c0.057-0.394,0.092-0.799,0.108-1.216c-0.017,0.046-0.03,0.087-0.042,0.122
		c-0.012,0.034-0.026,0.069-0.042,0.104c-0.257,0.765-0.51,1.555-0.762,2.372s-0.511,1.671-0.774,2.563l0.012-0.018
		c-0.023,0.093-0.05,0.18-0.077,0.261c-0.028,0.081-0.054,0.168-0.078,0.261L79.466,15.774z M79.646,33.705
		c0-0.023-0.002-0.04-0.006-0.052c-0.004-0.012-0.007-0.023-0.007-0.035L79.646,33.705z"/>
	<path d="M116.018,32.819c0.159-0.093,0.317-0.104,0.473-0.035c0.156,0.07,0.267,0.203,0.33,0.4c0.064,0.197,0.064,0.405,0,0.625
		c-0.063,0.221-0.175,0.383-0.336,0.487c-0.023,0.011-0.052,0.023-0.084,0.035c-0.032,0.011-0.056,0.023-0.071,0.034
		c-0.04,0.024-0.101,0.05-0.181,0.079c-0.079,0.029-0.231,0.101-0.455,0.217c-0.16,0.092-0.372,0.205-0.636,0.338
		s-0.58,0.293-0.947,0.478c-0.385,0.186-0.839,0.397-1.362,0.635c-0.524,0.237-1.146,0.489-1.865,0.756
		c-0.088,0.034-0.186,0.072-0.294,0.112c-0.108,0.041-0.21,0.078-0.306,0.113c-0.304,0.115-0.636,0.238-0.996,0.365
		c-0.359,0.127-0.731,0.243-1.116,0.348c-0.511,0.139-1.071,0.26-1.679,0.365c-0.608,0.104-1.248,0.144-1.919,0.121
		c-0.432-0.012-0.804-0.029-1.115-0.053c-0.312-0.023-0.588-0.046-0.828-0.068c-0.112-0.012-0.206-0.019-0.282-0.019
		s-0.143-0.011-0.198-0.034v0.018l-0.107,0.207c-0.017,0.035-0.034,0.068-0.054,0.097c-0.021,0.028-0.038,0.062-0.055,0.096
		c-0.023,0.046-0.052,0.093-0.084,0.14c-0.032,0.045-0.06,0.092-0.084,0.138c-0.136,0.232-0.291,0.489-0.467,0.774
		c-0.177,0.283-0.38,0.582-0.613,0.894c-0.136,0.197-0.301,0.409-0.497,0.635c-0.195,0.226-0.406,0.437-0.63,0.634
		c-0.112,0.104-0.243,0.209-0.396,0.312c-0.151,0.104-0.305,0.191-0.456,0.261c-0.168,0.093-0.349,0.146-0.54,0.157
		c-0.032,0.011-0.063,0.017-0.096,0.017s-0.056,0-0.072,0c-0.048,0-0.088-0.006-0.119-0.017h-0.037
		c-0.144-0.012-0.275-0.064-0.396-0.157h0.013c-0.232-0.162-0.414-0.384-0.546-0.668c-0.133-0.285-0.227-0.57-0.282-0.86
		c-0.057-0.267-0.092-0.521-0.108-0.765c-0.016-0.243-0.027-0.48-0.035-0.713c0-0.243,0.006-0.474,0.018-0.694
		s0.026-0.429,0.042-0.625c0.016-0.186,0.038-0.377,0.065-0.574c0.028-0.197,0.062-0.394,0.103-0.59v0.017
		c0.072-0.382,0.162-0.73,0.27-1.043c0.108-0.312,0.229-0.596,0.366-0.851c0.136-0.254,0.276-0.478,0.42-0.669
		c0.144-0.191,0.283-0.356,0.419-0.495l-0.012,0.017c0.272-0.278,0.518-0.483,0.738-0.617c0.22-0.133,0.405-0.234,0.558-0.304
		c0.16-0.069,0.282-0.119,0.366-0.147s0.146-0.049,0.186-0.061c0.184-0.046,0.35,0.008,0.498,0.165
		c0.148,0.157,0.222,0.351,0.222,0.583c0,0.22-0.05,0.408-0.15,0.564c-0.1,0.156-0.226,0.258-0.377,0.305
		c-0.017,0-0.04,0.002-0.072,0.008s-0.056,0.008-0.072,0.008c-0.008,0.012-0.031,0.018-0.072,0.018c-0.04,0-0.079,0.006-0.119,0.017
		c-0.017,0-0.028,0.003-0.036,0.008c-0.008,0.006-0.021,0.008-0.036,0.008c-0.191,0.059-0.439,0.169-0.743,0.331
		c-0.104,0.058-0.215,0.136-0.33,0.234c-0.116,0.098-0.229,0.217-0.342,0.356c-0.121,0.139-0.242,0.313-0.366,0.521
		c-0.124,0.209-0.233,0.464-0.33,0.765c-0.111,0.302-0.198,0.643-0.258,1.025c-0.06,0.382-0.105,0.805-0.138,1.269
		c-0.024,0.243-0.036,0.47-0.036,0.678c0,0.255,0.017,0.498,0.048,0.729c0.024,0.22,0.07,0.435,0.139,0.643
		c0.067,0.209,0.174,0.365,0.317,0.469h-0.013c0.081,0.059,0.18,0.088,0.301,0.088c0.176,0,0.364-0.058,0.563-0.174
		c0.16-0.081,0.305-0.171,0.432-0.27c0.128-0.099,0.248-0.2,0.36-0.305c0.208-0.196,0.401-0.422,0.581-0.678
		c0.181-0.254,0.347-0.497,0.498-0.729c0.16-0.255,0.295-0.479,0.402-0.677s0.205-0.383,0.294-0.557
		c0.064-0.115,0.116-0.22,0.155-0.312c0.04-0.094,0.077-0.18,0.108-0.262c0.016-0.034,0.032-0.068,0.048-0.104
		c0.017-0.034,0.031-0.068,0.048-0.104l-0.012,0.017c0.008-0.022,0.016-0.043,0.024-0.062c0.008-0.016,0.016-0.037,0.023-0.06
		l-0.023,0.156c0-0.011,0.003-0.021,0.012-0.026c0.008-0.006,0.012-0.015,0.012-0.025l0.276-0.383l0.096-0.035
		c0.16-0.022,0.325-0.037,0.498-0.043c0.172-0.006,0.337-0.008,0.498-0.008c0.096,0,0.191,0.002,0.287,0.008s0.2,0.009,0.312,0.009
		c0.127,0,0.261,0,0.401,0c0.14,0,0.29,0.006,0.45,0.018c0.191,0.011,0.416,0.021,0.672,0.025c0.256,0.006,0.516,0.009,0.78,0.009
		c0.663-0.012,1.223-0.055,1.679-0.13c0.455-0.075,0.863-0.159,1.224-0.252c0.392-0.104,0.742-0.209,1.05-0.312
		c0.308-0.105,0.634-0.22,0.978-0.348c0.52-0.209,1.025-0.437,1.518-0.687c0.491-0.25,0.897-0.466,1.218-0.651
		c0.279-0.162,0.518-0.307,0.713-0.435c0.196-0.127,0.37-0.243,0.522-0.348c0.016-0.011,0.033-0.023,0.054-0.035
		c0.02-0.011,0.054-0.035,0.102-0.07c0.16-0.115,0.292-0.214,0.396-0.295c0.104-0.081,0.195-0.15,0.275-0.209l-0.012,0.018
		c0.08-0.058,0.152-0.113,0.216-0.166C115.853,32.932,115.929,32.876,116.018,32.819z"/>
	<path d="M151.98,33.01c0.072,0.186,0.054,0.423-0.055,0.712c-0.107,0.29-0.285,0.533-0.533,0.729h0.012
		c-0.04,0.035-0.073,0.067-0.102,0.096s-0.099,0.078-0.21,0.147h0.012c-0.088,0.058-0.214,0.144-0.378,0.26
		c-0.164,0.116-0.414,0.307-0.749,0.574l0.012-0.018c-0.041,0.035-0.087,0.073-0.139,0.113c-0.052,0.041-0.102,0.084-0.149,0.13
		c-0.288,0.232-0.645,0.504-1.067,0.816c-0.425,0.312-0.936,0.689-1.536,1.13c-0.343,0.255-0.729,0.532-1.157,0.834
		s-0.886,0.607-1.373,0.921c-0.488,0.312-1.042,0.648-1.662,1.008c-0.619,0.358-1.253,0.684-1.901,0.973
		c-0.208,0.093-0.417,0.165-0.629,0.218c-0.213,0.052-0.435,0.084-0.666,0.095c-0.225,0-0.459-0.034-0.702-0.104
		c-0.244-0.069-0.481-0.174-0.714-0.313c-0.456-0.301-0.872-0.731-1.247-1.294c-0.376-0.562-0.691-1.179-0.948-1.851
		c-0.248-0.66-0.464-1.401-0.647-2.224c-0.016-0.047-0.028-0.087-0.036-0.123c0,0.012-0.004,0.018-0.012,0.018l0.012-0.018
		c-0.456,0.568-0.928,1.126-1.415,1.677c-0.488,0.55-1.004,1.086-1.548,1.607c-0.712,0.684-1.342,1.228-1.889,1.633
		c-0.549,0.405-1.062,0.741-1.542,1.008c-0.48,0.267-0.947,0.44-1.404,0.521c-0.079,0.024-0.169,0.039-0.27,0.045
		c-0.101,0.005-0.197,0.008-0.294,0.008c-0.16,0-0.322-0.018-0.485-0.053c-0.164-0.034-0.326-0.098-0.485-0.19
		c-0.257-0.15-0.498-0.376-0.727-0.678c-0.228-0.302-0.426-0.654-0.594-1.06c-0.159-0.405-0.294-0.845-0.401-1.32
		c-0.108-0.476-0.194-0.991-0.258-1.546v0.016c-0.056-0.428-0.099-0.885-0.127-1.372c-0.027-0.486-0.041-1.013-0.041-1.581v-0.139
		c-0.096,0.082-0.19,0.165-0.282,0.252c-0.092,0.086-0.182,0.177-0.271,0.269c-0.224,0.208-0.451,0.417-0.684,0.626
		c-0.231,0.208-0.472,0.429-0.72,0.66c-0.032,0.023-0.067,0.053-0.107,0.087c-0.041,0.035-0.076,0.069-0.108,0.104
		c-1.168,1.055-2.254,2.004-3.256,2.85c-1.005,0.846-1.938,1.569-2.802,2.172c-0.208,0.15-0.424,0.293-0.648,0.426
		c-0.224,0.134-0.451,0.252-0.684,0.355h-0.012c-0.112,0.059-0.224,0.104-0.336,0.14c-0.112,0.034-0.236,0.047-0.372,0.034
		c-0.04,0-0.084-0.006-0.131-0.017c-0.049-0.012-0.104-0.041-0.168-0.088c-0.072-0.034-0.137-0.09-0.193-0.164
		c-0.055-0.075-0.096-0.153-0.119-0.235c-0.008-0.022-0.018-0.065-0.029-0.13c-0.013-0.063-0.022-0.112-0.031-0.147
		c0-0.012-0.001-0.028-0.006-0.053c-0.003-0.022-0.006-0.039-0.006-0.052c0-0.162,0.004-0.28,0.012-0.356
		c0.009-0.075,0.021-0.159,0.037-0.252c0.047-0.266,0.102-0.5,0.162-0.703c0.059-0.203,0.117-0.396,0.174-0.582
		c0.016-0.047,0.029-0.093,0.041-0.139c0.012-0.047,0.026-0.088,0.043-0.123c0.04-0.139,0.087-0.28,0.143-0.426
		c0.057-0.144,0.104-0.279,0.145-0.407c0.024-0.058,0.048-0.124,0.072-0.2c0.023-0.074,0.048-0.141,0.072-0.199l-0.013,0.018
		c0.265-0.73,0.498-1.358,0.702-1.885c0.204-0.528,0.373-0.965,0.51-1.313c0.071-0.173,0.136-0.327,0.192-0.46
		c0.056-0.133,0.104-0.252,0.143-0.356c0.04-0.104,0.074-0.188,0.104-0.252c0.027-0.063,0.049-0.119,0.064-0.165
		c0.152-0.336,0.324-0.591,0.517-0.765s0.356-0.197,0.492-0.069c0.128,0.128,0.186,0.35,0.174,0.669
		c-0.013,0.318-0.09,0.651-0.234,0.999c-0.023,0.059-0.05,0.125-0.077,0.2c-0.029,0.075-0.066,0.165-0.114,0.269
		c-0.089,0.198-0.225,0.498-0.408,0.904c-0.185,0.405-0.439,0.996-0.768,1.772c-0.128,0.301-0.262,0.634-0.401,0.999
		c-0.141,0.365-0.291,0.768-0.45,1.207c-0.016,0.047-0.03,0.09-0.042,0.131c-0.013,0.041-0.026,0.084-0.042,0.13
		c-0.112,0.313-0.204,0.62-0.276,0.922c0.12-0.035,0.256-0.088,0.408-0.157c0.016-0.011,0.032-0.02,0.048-0.025
		s0.031-0.015,0.048-0.026h-0.012c0.455-0.231,0.938-0.53,1.445-0.896c0.508-0.364,1.05-0.767,1.626-1.207h-0.013
		c0.575-0.452,1.188-0.944,1.836-1.477c0.647-0.533,1.335-1.112,2.062-1.738c0.04-0.035,0.077-0.07,0.108-0.104
		c0.032-0.035,0.067-0.069,0.108-0.104c0.287-0.266,0.567-0.518,0.839-0.756c0.272-0.237,0.532-0.472,0.779-0.703
		c0.04-0.035,0.084-0.078,0.133-0.131c0.048-0.052,0.115-0.107,0.203-0.165h-0.012c0.089-0.081,0.164-0.13,0.229-0.147
		c0.063-0.018,0.14-0.072,0.228-0.166l0.168-0.243c0.016-0.012,0.028-0.024,0.036-0.035c0.008-0.012,0.02-0.024,0.036-0.035
		l0.396,0.277v0.018c0,0.012,0.008,0.017,0.024,0.017l-0.036,0.313v0.139c-0.008,0.104-0.012,0.206-0.012,0.304
		c0,0.099,0,0.194,0,0.287c-0.009,0.834,0.02,1.596,0.084,2.285c0.063,0.689,0.155,1.317,0.275,1.885
		c0.112,0.557,0.26,1.034,0.444,1.435c0.184,0.399,0.396,0.703,0.635,0.911c0.137,0.128,0.278,0.215,0.427,0.261
		c0.148,0.047,0.294,0.069,0.438,0.069c0.08,0,0.174-0.011,0.282-0.034c0.107-0.023,0.205-0.046,0.294-0.07
		c0.247-0.08,0.486-0.174,0.713-0.277c0.229-0.104,0.442-0.221,0.643-0.348c0.216-0.139,0.439-0.289,0.672-0.451
		c0.231-0.163,0.463-0.342,0.695-0.539c0.479-0.394,1.032-0.883,1.655-1.469c0.624-0.584,1.319-1.295,2.088-2.128
		c0.239-0.266,0.47-0.523,0.689-0.772c0.22-0.25,0.435-0.496,0.642-0.738l0.024-0.035c0.008-0.012,0.027-0.038,0.06-0.079
		c0.032-0.04,0.057-0.072,0.072-0.095h0.012l0.097-0.139c0.096,0.058,0.171,0.102,0.227,0.13c0.057,0.029,0.101,0.052,0.133,0.069
		c0.032,0.018,0.058,0.032,0.078,0.044c0.02,0.011,0.041,0.023,0.066,0.035v0.295c0.176,0.115,0.261,0.243,0.258,0.382
		c-0.005,0.139-0.055,0.237-0.15,0.295v0.052c0,0.012,0.004,0.017,0.012,0.017c0.04,0.174,0.078,0.356,0.114,0.548
		c0.036,0.19,0.073,0.368,0.114,0.529v-0.017c0.319,1.239,0.699,2.212,1.14,2.919c0.432,0.719,0.939,1.163,1.523,1.338
		c0.216,0.069,0.423,0.104,0.623,0.104c0.208,0,0.416-0.028,0.624-0.086s0.424-0.14,0.648-0.244
		c0.583-0.266,1.121-0.549,1.613-0.851c0.491-0.302,0.949-0.591,1.373-0.868h-0.012c0.432-0.302,0.829-0.586,1.193-0.853
		s0.698-0.515,1.002-0.747c0.607-0.475,1.127-0.888,1.56-1.242c0.432-0.353,0.791-0.658,1.079-0.912
		c0.296-0.254,0.536-0.472,0.72-0.651c0.185-0.18,0.348-0.333,0.492-0.461c0.144-0.127,0.282-0.249,0.413-0.365
		c0.133-0.115,0.274-0.237,0.426-0.365h-0.012c0.24-0.22,0.472-0.336,0.695-0.348c0.225-0.011,0.381,0.075,0.469,0.261V33.01z
		 M136.074,34.661c0,0.023,0.003,0.035,0.012,0.035c0-0.012-0.002-0.021-0.006-0.026s-0.006-0.014-0.006-0.026V34.661z"/>
	<path d="M150.517,34.139c0.072-0.254,0.156-0.48,0.252-0.677c0.097-0.197,0.192-0.362,0.288-0.496s0.19-0.226,0.281-0.278
		c0.093-0.052,0.174-0.054,0.246-0.008c0.063,0.046,0.112,0.136,0.145,0.269c0.031,0.133,0.043,0.298,0.036,0.495
		c-0.008,0.197-0.032,0.412-0.072,0.643c-0.04,0.232-0.097,0.469-0.168,0.712c-0.031,0.093-0.06,0.183-0.084,0.27
		c-0.024,0.086-0.057,0.176-0.097,0.269c-0.031,0.082-0.067,0.183-0.107,0.305c-0.04,0.122-0.094,0.275-0.162,0.459
		c-0.067,0.187-0.146,0.415-0.234,0.687c-0.087,0.272-0.195,0.6-0.323,0.982c-0.04,0.104-0.077,0.211-0.114,0.32
		c-0.035,0.111-0.073,0.229-0.113,0.357c-0.2,0.637-0.444,1.41-0.731,2.319c-0.288,0.909-0.616,1.979-0.984,3.206
		c-0.023,0.08-0.05,0.162-0.078,0.243c-0.027,0.081-0.054,0.167-0.078,0.261c-0.447,1.481-0.964,3.22-1.547,5.212
		c-0.584,1.992-1.228,4.326-1.932,7.002c-0.191,0.754-0.388,1.549-0.588,2.39c-0.2,0.84-0.383,1.7-0.551,2.58
		c-0.032,0.174-0.064,0.354-0.097,0.538c-0.031,0.186-0.064,0.377-0.097,0.573c0.137-0.405,0.271-0.815,0.402-1.233
		c0.133-0.416,0.267-0.846,0.402-1.285c0.504-1.61,1.054-3.322,1.649-5.135s1.253-3.646,1.974-5.499
		c0.567-1.471,1.104-2.769,1.607-3.893c0.503-1.123,0.959-2.084,1.366-2.884c0.4-0.788,0.805-1.538,1.213-2.25
		c0.407-0.712,0.839-1.417,1.295-2.111c0.512-0.775,1.06-1.512,1.644-2.206v0.018c0.336-0.394,0.702-0.791,1.098-1.19
		c0.396-0.4,0.846-0.773,1.35-1.121c0.264-0.185,0.542-0.356,0.834-0.513c0.292-0.157,0.602-0.287,0.93-0.391
		c0.432-0.139,0.911-0.208,1.438-0.208c0.112,0,0.234,0.003,0.367,0.008c0.131,0.006,0.253,0.021,0.365,0.044
		c0.016,0.011,0.035,0.021,0.061,0.026c0.023,0.006,0.043,0.009,0.059,0.009c0.04,0,0.093,0.014,0.156,0.043
		c0.064,0.029,0.124,0.067,0.181,0.113c0.064,0.047,0.114,0.107,0.149,0.183c0.036,0.076,0.062,0.153,0.078,0.234
		c0.04,0.151,0.061,0.296,0.061,0.435c0,0.198-0.017,0.377-0.049,0.539c-0.032,0.163-0.067,0.313-0.107,0.452
		c-0.009,0.023-0.012,0.038-0.012,0.043s-0.004,0.021-0.013,0.043v-0.017c-0.096,0.312-0.193,0.603-0.294,0.869
		c-0.1,0.266-0.206,0.533-0.318,0.799c-0.231,0.532-0.483,1.074-0.755,1.624c-0.272,0.551-0.557,1.115-0.852,1.693l-0.36,0.679
		c-0.088,0.174-0.18,0.348-0.275,0.521c-0.097,0.173-0.188,0.341-0.276,0.504c-0.079,0.139-0.156,0.271-0.229,0.399
		c-0.071,0.128-0.143,0.261-0.215,0.399l2.411-1.268h-0.012c0.84-0.221,1.619-0.464,2.339-0.73c0.719-0.267,1.396-0.532,2.027-0.8
		c1.304-0.59,2.445-1.166,3.424-1.729c0.98-0.562,1.842-1.086,2.585-1.572c0.752-0.498,1.389-0.941,1.908-1.33
		c0.52-0.388,0.96-0.714,1.319-0.981h-0.012c0.353-0.277,0.625-0.495,0.821-0.651c0.196-0.156,0.334-0.269,0.414-0.339
		c0.328-0.266,0.63-0.432,0.906-0.495c0.275-0.064,0.457-0.003,0.545,0.182c0.04,0.093,0.049,0.212,0.024,0.356
		c-0.024,0.145-0.076,0.295-0.155,0.452c-0.081,0.156-0.187,0.312-0.318,0.469c-0.133,0.156-0.281,0.304-0.45,0.443v-0.018
		c-0.088,0.082-0.198,0.171-0.329,0.27c-0.133,0.098-0.318,0.234-0.559,0.408c-0.04,0.023-0.082,0.052-0.126,0.086
		s-0.09,0.069-0.138,0.104c-0.24,0.174-0.542,0.385-0.905,0.634c-0.364,0.25-0.818,0.553-1.362,0.912
		c-0.655,0.428-1.466,0.933-2.429,1.512c-0.964,0.58-2.129,1.188-3.497,1.824c-0.704,0.325-1.463,0.646-2.279,0.965
		c-0.815,0.318-1.684,0.61-2.603,0.877c-0.144,0.035-0.338,0.115-0.582,0.243s-0.514,0.267-0.81,0.417
		c-0.296,0.151-0.604,0.299-0.924,0.443c-0.32,0.145-0.626,0.261-0.917,0.348c-0.293,0.087-0.557,0.124-0.793,0.112
		c-0.235-0.011-0.422-0.099-0.558-0.261c-0.128-0.15-0.2-0.289-0.216-0.416c-0.017-0.128,0.013-0.262,0.084-0.399
		c0.072-0.14,0.178-0.297,0.318-0.47c0.14-0.174,0.298-0.383,0.474-0.626c0.176-0.242,0.363-0.535,0.563-0.877
		s0.396-0.75,0.588-1.226c0.136-0.336,0.283-0.666,0.444-0.99c0.16-0.324,0.319-0.643,0.479-0.955s0.315-0.617,0.468-0.912
		c0.151-0.296,0.287-0.583,0.408-0.861c0.056-0.138,0.113-0.286,0.174-0.443c0.061-0.156,0.109-0.304,0.15-0.443
		c0.039-0.127,0.075-0.26,0.107-0.399c0.031-0.139,0.052-0.272,0.061-0.399v-0.018c-0.009,0-0.025-0.005-0.049-0.017
		c-0.023-0.011-0.04-0.018-0.048-0.018c-0.024,0-0.05,0-0.077,0c-0.029,0-0.051-0.011-0.066-0.034c-0.017,0-0.038-0.003-0.066-0.009
		c-0.028-0.005-0.05-0.008-0.066-0.008c-0.079-0.011-0.156-0.021-0.228-0.026c-0.071-0.005-0.144-0.002-0.216,0.009
		c-0.408,0-0.796,0.058-1.163,0.173c-0.368,0.116-0.716,0.261-1.045,0.434c-0.327,0.174-0.634,0.374-0.917,0.6
		c-0.284,0.226-0.554,0.455-0.81,0.686c-0.512,0.498-0.962,0.996-1.35,1.494c-0.389,0.498-0.737,0.979-1.05,1.442h0.013
		c-0.328,0.498-0.625,0.974-0.889,1.425c-0.264,0.452-0.499,0.874-0.707,1.268c-0.432,0.823-0.854,1.674-1.266,2.555
		c-0.412,0.88-0.826,1.808-1.241,2.78c-0.433,1.008-0.914,2.183-1.446,3.526c-0.531,1.344-1.121,2.926-1.77,4.744
		c-0.384,1.054-0.731,2.038-1.044,2.954c-0.311,0.914-0.6,1.771-0.863,2.571c-0.048,0.139-0.093,0.278-0.138,0.416
		c-0.044,0.14-0.09,0.278-0.138,0.418c-0.145,0.428-0.288,0.856-0.432,1.285c-0.145,0.429-0.28,0.828-0.408,1.199
		c-0.016,0.058-0.036,0.109-0.06,0.156c-0.024,0.046-0.044,0.099-0.061,0.156c-0.104,0.267-0.212,0.533-0.324,0.799
		c-0.007,0.013-0.016,0.029-0.023,0.053s-0.023,0.052-0.049,0.087c0,0.012-0.006,0.028-0.018,0.053
		c-0.012,0.022-0.05,0.08-0.113,0.173h-0.012c-0.032,0.047-0.072,0.093-0.121,0.139c-0.016,0.023-0.029,0.038-0.041,0.044
		s-0.038,0.014-0.078,0.026c-0.04,0.022-0.095,0.022-0.162,0c-0.068-0.023-0.122-0.058-0.162-0.104
		c-0.04-0.046-0.069-0.093-0.09-0.14c-0.02-0.046-0.038-0.092-0.055-0.138l-0.047-0.262V64.84c-0.008-0.058-0.013-0.118-0.013-0.182
		s0-0.125,0-0.183c0.017-0.394,0.051-0.779,0.103-1.155s0.11-0.744,0.174-1.104c0.063-0.336,0.128-0.675,0.191-1.016
		c0.064-0.343,0.133-0.676,0.204-1c0.136-0.648,0.29-1.328,0.462-2.041s0.35-1.434,0.534-2.163c0.632-2.444,1.205-4.584,1.721-6.42
		s0.97-3.438,1.362-4.805c0.184-0.649,0.354-1.245,0.51-1.789c0.156-0.545,0.302-1.055,0.438-1.529
		c0.136-0.486,0.272-0.962,0.408-1.425c0.136-0.464,0.252-0.862,0.348-1.198c0.136-0.453,0.249-0.853,0.342-1.199
		c0.092-0.348,0.178-0.661,0.258-0.938c0.08-0.267,0.152-0.506,0.216-0.721c0.064-0.215,0.126-0.42,0.186-0.617
		c0.061-0.197,0.118-0.391,0.174-0.582C150.381,34.582,150.445,34.371,150.517,34.139z"/>
	<path d="M190.655,33.01c0.087,0.197,0.083,0.426-0.013,0.686c-0.096,0.261-0.239,0.49-0.432,0.687
		c-0.031,0.023-0.062,0.046-0.09,0.069c-0.028,0.023-0.074,0.058-0.138,0.104h0.023c-0.064,0.058-0.166,0.136-0.306,0.234
		c-0.141,0.098-0.361,0.281-0.666,0.547c-0.239,0.209-0.548,0.481-0.924,0.817c-0.375,0.337-0.841,0.763-1.396,1.277
		c-0.557,0.516-1.215,1.138-1.974,1.868c-0.761,0.729-1.644,1.587-2.651,2.571c-0.553,0.533-1.126,1.121-1.722,1.764
		s-1.242,1.347-1.938,2.111c-0.623,0.694-1.295,1.45-2.015,2.268c-0.72,0.815-1.468,1.664-2.243,2.545
		c-0.04,0.209-0.078,0.416-0.114,0.625s-0.074,0.423-0.114,0.644c-0.191,0.926-0.416,1.783-0.672,2.571
		c-0.255,0.787-0.552,1.459-0.888,2.016c-0.175,0.277-0.361,0.527-0.557,0.747c-0.196,0.22-0.398,0.394-0.607,0.521
		c-0.207,0.127-0.421,0.226-0.641,0.295s-0.422,0.109-0.606,0.121c-0.104,0-0.203-0.006-0.3-0.017
		c-0.096-0.012-0.188-0.029-0.275-0.053c-0.12-0.034-0.233-0.101-0.343-0.199c-0.107-0.099-0.188-0.252-0.246-0.461l0.013,0.018
		c-0.056-0.186-0.076-0.355-0.06-0.513c0.016-0.156,0.04-0.298,0.072-0.425c0.032-0.129,0.065-0.241,0.102-0.34
		c0.035-0.099,0.073-0.194,0.113-0.286c0.152-0.359,0.307-0.675,0.463-0.947c0.155-0.272,0.31-0.536,0.461-0.791
		c0.297-0.463,0.601-0.909,0.912-1.338c0.312-0.428,0.647-0.868,1.007-1.319c0.24-0.302,0.492-0.614,0.757-0.938
		c0.264-0.324,0.575-0.678,0.936-1.06c0.056-0.43,0.107-0.838,0.156-1.226c0.047-0.389,0.091-0.768,0.131-1.139
		c0.064-0.66,0.125-1.317,0.18-1.972c0.057-0.654,0.104-1.26,0.145-1.815c0.017-0.163,0.03-0.327,0.043-0.495
		c0.012-0.168,0.025-0.334,0.041-0.496c0.072-0.903,0.139-1.728,0.198-2.476c0.06-0.747,0.122-1.416,0.187-2.006
		c0.159-1.379,0.331-2.416,0.516-3.11c0.08-0.313,0.164-0.582,0.251-0.809c0.088-0.226,0.152-0.379,0.192-0.46
		c0.152-0.313,0.348-0.516,0.588-0.608h-0.013c0.137-0.047,0.255-0.035,0.354,0.035c0.1,0.069,0.17,0.162,0.21,0.277
		c0.04,0.116,0.055,0.232,0.042,0.348c-0.013,0.117-0.034,0.238-0.065,0.365c-0.032,0.081-0.064,0.165-0.096,0.252
		c-0.033,0.086-0.069,0.176-0.109,0.269c-0.04,0.059-0.059,0.094-0.059,0.104c-0.025,0.047-0.053,0.102-0.085,0.166
		s-0.068,0.165-0.108,0.304c-0.063,0.186-0.14,0.438-0.228,0.756c-0.088,0.319-0.18,0.756-0.275,1.311
		c-0.097,0.545-0.194,1.238-0.294,2.078c-0.101,0.84-0.206,1.879-0.318,3.118c-0.04,0.371-0.075,0.752-0.107,1.146
		c-0.048,0.464-0.097,0.956-0.145,1.477c-0.048,0.521-0.104,1.061-0.167,1.616c-0.017,0.081-0.026,0.153-0.031,0.217
		c-0.004,0.064-0.013,0.136-0.029,0.218c-0.023,0.185-0.04,0.33-0.048,0.435c-0.008,0.104-0.017,0.205-0.024,0.304
		c-0.009,0.098-0.021,0.208-0.035,0.33c-0.017,0.122-0.041,0.287-0.072,0.495c0.072-0.081,0.142-0.159,0.209-0.234
		c0.068-0.075,0.143-0.153,0.223-0.234c0.575-0.603,1.091-1.142,1.548-1.616c0.455-0.475,0.875-0.903,1.259-1.286h-0.012
		c0.232-0.231,0.447-0.448,0.647-0.651c0.2-0.202,0.393-0.402,0.575-0.599c0.233-0.232,0.459-0.461,0.679-0.687
		c0.22-0.227,0.438-0.449,0.653-0.669h-0.012c0.24-0.255,0.488-0.507,0.743-0.756c0.257-0.249,0.524-0.519,0.805-0.809
		c0.823-0.834,1.549-1.562,2.177-2.189c0.628-0.625,1.182-1.181,1.661-1.668c0.504-0.497,0.946-0.94,1.326-1.328
		c0.379-0.389,0.686-0.709,0.918-0.965c0.191-0.197,0.355-0.365,0.491-0.504s0.26-0.267,0.372-0.382
		c0.152-0.162,0.29-0.307,0.413-0.435c0.124-0.128,0.263-0.261,0.414-0.399c0.208-0.197,0.414-0.298,0.618-0.305
		c0.204-0.006,0.351,0.084,0.438,0.27V33.01z M172.121,55.319c0.231-0.476,0.442-1.025,0.63-1.65
		c0.188-0.626,0.354-1.31,0.498-2.051c-0.399,0.463-0.748,0.877-1.044,1.242s-0.567,0.704-0.816,1.017
		c-0.015,0.023-0.033,0.046-0.053,0.069c-0.021,0.023-0.038,0.047-0.055,0.069c-0.264,0.348-0.513,0.684-0.75,1.008
		c-0.234,0.324-0.469,0.689-0.701,1.095c-0.04,0.081-0.082,0.174-0.126,0.278s-0.086,0.202-0.126,0.295
		c-0.024,0.069-0.044,0.134-0.06,0.191c-0.017,0.059-0.021,0.093-0.012,0.104c0.008,0.024,0.043,0.041,0.107,0.053
		c0.063,0.012,0.14,0.023,0.228,0.035c0.248,0.022,0.5-0.012,0.756-0.104c0.264-0.093,0.527-0.278,0.791-0.556
		C171.654,56.136,171.897,55.771,172.121,55.319z"/>
	<path d="M206.081,32.819c0.16-0.093,0.317-0.104,0.474-0.035c0.156,0.07,0.267,0.203,0.33,0.4s0.063,0.405,0,0.625
		c-0.063,0.221-0.176,0.383-0.336,0.487c-0.023,0.011-0.052,0.023-0.084,0.035c-0.032,0.011-0.056,0.023-0.072,0.034
		c-0.04,0.024-0.1,0.05-0.18,0.079s-0.231,0.101-0.455,0.217c-0.161,0.092-0.372,0.205-0.636,0.338s-0.58,0.293-0.948,0.478
		c-0.384,0.186-0.838,0.397-1.361,0.635c-0.524,0.237-1.146,0.489-1.865,0.756c-0.089,0.034-0.186,0.072-0.294,0.112
		c-0.108,0.041-0.21,0.078-0.306,0.113c-0.304,0.115-0.636,0.238-0.996,0.365s-0.731,0.243-1.116,0.348
		c-0.512,0.139-1.071,0.26-1.679,0.365c-0.608,0.104-1.248,0.144-1.919,0.121c-0.432-0.012-0.805-0.029-1.116-0.053
		s-0.588-0.046-0.827-0.068c-0.112-0.012-0.207-0.019-0.282-0.019c-0.076,0-0.143-0.011-0.198-0.034v0.018l-0.108,0.207
		c-0.016,0.035-0.033,0.068-0.053,0.097c-0.021,0.028-0.038,0.062-0.055,0.096c-0.023,0.046-0.052,0.093-0.084,0.14
		c-0.032,0.045-0.061,0.092-0.084,0.138c-0.136,0.232-0.292,0.489-0.468,0.774c-0.176,0.283-0.38,0.582-0.612,0.894
		c-0.136,0.197-0.301,0.409-0.497,0.635s-0.406,0.437-0.63,0.634c-0.112,0.104-0.244,0.209-0.396,0.312
		c-0.152,0.104-0.305,0.191-0.457,0.261c-0.168,0.093-0.348,0.146-0.539,0.157c-0.032,0.011-0.063,0.017-0.096,0.017
		s-0.057,0-0.072,0c-0.048,0-0.088-0.006-0.12-0.017h-0.036c-0.144-0.012-0.275-0.064-0.396-0.157h0.012
		c-0.231-0.162-0.414-0.384-0.545-0.668c-0.133-0.285-0.227-0.57-0.283-0.86c-0.056-0.267-0.091-0.521-0.107-0.765
		c-0.016-0.243-0.028-0.48-0.035-0.713c0-0.243,0.006-0.474,0.018-0.694s0.026-0.429,0.041-0.625
		c0.017-0.186,0.039-0.377,0.066-0.574c0.028-0.197,0.062-0.394,0.102-0.59v0.017c0.072-0.382,0.162-0.73,0.271-1.043
		c0.108-0.312,0.229-0.596,0.366-0.851c0.136-0.254,0.275-0.478,0.42-0.669c0.144-0.191,0.283-0.356,0.419-0.495l-0.012,0.017
		c0.272-0.278,0.518-0.483,0.738-0.617c0.22-0.133,0.405-0.234,0.558-0.304c0.16-0.069,0.282-0.119,0.366-0.147
		s0.146-0.049,0.186-0.061c0.184-0.046,0.35,0.008,0.498,0.165c0.147,0.157,0.222,0.351,0.222,0.583c0,0.22-0.05,0.408-0.15,0.564
		c-0.1,0.156-0.226,0.258-0.377,0.305c-0.017,0-0.04,0.002-0.072,0.008s-0.057,0.008-0.072,0.008
		c-0.008,0.012-0.031,0.018-0.072,0.018c-0.04,0-0.08,0.006-0.119,0.017c-0.017,0-0.028,0.003-0.036,0.008
		c-0.009,0.006-0.021,0.008-0.036,0.008c-0.192,0.059-0.439,0.169-0.743,0.331c-0.104,0.058-0.215,0.136-0.33,0.234
		c-0.116,0.098-0.23,0.217-0.342,0.356c-0.121,0.139-0.242,0.313-0.366,0.521c-0.125,0.209-0.234,0.464-0.33,0.765
		c-0.111,0.302-0.198,0.643-0.258,1.025c-0.061,0.382-0.105,0.805-0.138,1.269c-0.024,0.243-0.036,0.47-0.036,0.678
		c0,0.255,0.017,0.498,0.048,0.729c0.024,0.22,0.07,0.435,0.138,0.643c0.068,0.209,0.174,0.365,0.318,0.469h-0.013
		c0.081,0.059,0.18,0.088,0.301,0.088c0.175,0,0.363-0.058,0.562-0.174c0.161-0.081,0.305-0.171,0.433-0.27s0.248-0.2,0.36-0.305
		c0.208-0.196,0.401-0.422,0.581-0.678c0.181-0.254,0.346-0.497,0.498-0.729c0.16-0.255,0.294-0.479,0.402-0.677
		c0.107-0.197,0.205-0.383,0.293-0.557c0.064-0.115,0.116-0.22,0.156-0.312c0.04-0.094,0.076-0.18,0.107-0.262
		c0.017-0.034,0.032-0.068,0.049-0.104c0.016-0.034,0.031-0.068,0.048-0.104l-0.013,0.017c0.009-0.022,0.017-0.043,0.025-0.062
		c0.007-0.016,0.015-0.037,0.023-0.06l-0.023,0.156c0-0.011,0.003-0.021,0.012-0.026c0.008-0.006,0.012-0.015,0.012-0.025
		l0.275-0.383l0.096-0.035c0.161-0.022,0.326-0.037,0.498-0.043c0.173-0.006,0.338-0.008,0.498-0.008
		c0.097,0,0.192,0.002,0.288,0.008s0.2,0.009,0.312,0.009c0.127,0,0.261,0,0.401,0c0.14,0,0.29,0.006,0.45,0.018
		c0.191,0.011,0.416,0.021,0.672,0.025c0.255,0.006,0.516,0.009,0.779,0.009c0.664-0.012,1.224-0.055,1.68-0.13
		c0.455-0.075,0.863-0.159,1.223-0.252c0.393-0.104,0.742-0.209,1.051-0.312c0.307-0.105,0.634-0.22,0.978-0.348
		c0.52-0.209,1.025-0.437,1.518-0.687c0.491-0.25,0.897-0.466,1.217-0.651c0.28-0.162,0.518-0.307,0.714-0.435
		c0.196-0.127,0.37-0.243,0.521-0.348c0.017-0.011,0.034-0.023,0.055-0.035c0.02-0.011,0.054-0.035,0.102-0.07
		c0.16-0.115,0.292-0.214,0.396-0.295c0.104-0.081,0.195-0.15,0.275-0.209l-0.012,0.018c0.08-0.058,0.152-0.113,0.216-0.166
		C205.917,32.932,205.993,32.876,206.081,32.819z"/>
	<path d="M234.835,33.166c0.185-0.208,0.374-0.321,0.57-0.338c0.195-0.017,0.342,0.061,0.438,0.234
		c0.088,0.174,0.096,0.4,0.024,0.678c-0.072,0.278-0.192,0.516-0.36,0.712c-0.016,0.023-0.042,0.052-0.078,0.087
		c-0.036,0.035-0.07,0.063-0.102,0.087c-0.032,0.022-0.07,0.055-0.114,0.095c-0.044,0.041-0.101,0.09-0.168,0.148
		c-0.068,0.058-0.149,0.134-0.245,0.226c-0.097,0.093-0.217,0.208-0.361,0.347c-0.039,0.035-0.081,0.073-0.125,0.113
		c-0.044,0.041-0.086,0.085-0.127,0.131c-0.447,0.428-1.083,1.008-1.907,1.737c-0.264,0.231-0.556,0.478-0.875,0.738
		c-0.32,0.262-0.672,0.53-1.056,0.809c-0.376,0.266-0.797,0.55-1.266,0.851c-0.468,0.302-0.97,0.586-1.505,0.852
		c-0.289,0.14-0.594,0.277-0.918,0.417c-0.324,0.139-0.666,0.27-1.025,0.391c-0.36,0.122-0.732,0.221-1.116,0.296
		s-0.779,0.118-1.188,0.131c-0.408,0.012-0.842-0.029-1.302-0.123c-0.46-0.092-0.913-0.242-1.361-0.451
		c-0.456-0.22-0.914-0.515-1.374-0.887c-0.46-0.37-0.89-0.815-1.289-1.337c-0.504-0.66-0.899-1.289-1.188-1.886
		s-0.536-1.144-0.743-1.642c-0.2-0.486-0.368-0.955-0.504-1.408c-0.024,0.012-0.053,0.029-0.084,0.053
		c-0.312,0.208-0.662,0.452-1.05,0.729c-0.389,0.278-0.826,0.625-1.314,1.043c-0.367,0.312-0.791,0.686-1.271,1.121
		c-0.48,0.435-0.996,0.912-1.548,1.433c-0.2,0.186-0.406,0.377-0.618,0.574c-0.211,0.196-0.434,0.399-0.665,0.607
		c-0.464,0.406-0.916,0.788-1.355,1.146c-0.44,0.36-0.873,0.672-1.296,0.938c-0.224,0.14-0.448,0.264-0.672,0.374
		c-0.224,0.109-0.439,0.193-0.647,0.252c-0.184,0.058-0.385,0.087-0.6,0.087c-0.28,0-0.536-0.058-0.768-0.174
		c-0.017-0.012-0.037-0.023-0.061-0.035c-0.023-0.011-0.044-0.022-0.061-0.035c-0.016-0.011-0.027-0.017-0.035-0.017
		s-0.021-0.006-0.037-0.018l0.072,0.018c-0.016-0.012-0.035-0.018-0.06-0.018l-0.132-0.104c-0.104-0.116-0.168-0.209-0.191-0.278
		c-0.064-0.162-0.097-0.295-0.097-0.399s0-0.203,0-0.296v-0.122c0.017-0.174,0.036-0.33,0.06-0.469
		c0.024-0.14,0.057-0.271,0.096-0.4v0.019c0.064-0.255,0.129-0.489,0.193-0.704c0.063-0.214,0.128-0.42,0.191-0.617
		c0.264-0.775,0.512-1.441,0.744-1.998c0.432-1.1,0.759-1.914,0.983-2.44c0.224-0.527,0.363-0.854,0.42-0.981
		c0.128-0.278,0.285-0.479,0.473-0.6c0.188-0.121,0.343-0.119,0.463,0.009c0.127,0.128,0.193,0.33,0.197,0.608
		c0.005,0.278-0.062,0.568-0.197,0.869v-0.017c-0.017,0.058-0.042,0.121-0.078,0.191c-0.036,0.069-0.07,0.133-0.102,0.191
		c-0.081,0.151-0.192,0.376-0.336,0.678c-0.145,0.301-0.353,0.752-0.624,1.355c-0.032,0.047-0.059,0.098-0.078,0.156
		c-0.021,0.059-0.038,0.109-0.054,0.156c-0.089,0.197-0.183,0.408-0.282,0.635s-0.206,0.479-0.317,0.756
		c-0.072,0.174-0.145,0.354-0.216,0.538c-0.072,0.187-0.145,0.383-0.217,0.591c-0.079,0.221-0.156,0.443-0.228,0.669
		s-0.136,0.455-0.192,0.687v-0.018c-0.023,0.104-0.035,0.197-0.035,0.278c0.031,0.023,0.052,0.034,0.06,0.034h-0.013
		c0.04,0.024,0.084,0.041,0.133,0.053c0.048,0.012,0.104,0.023,0.168,0.034c0.191,0.023,0.397,0.01,0.617-0.043
		c0.22-0.052,0.442-0.13,0.666-0.234c0.208-0.093,0.439-0.22,0.696-0.383c0.255-0.162,0.518-0.341,0.785-0.538
		c0.269-0.197,0.54-0.405,0.815-0.626c0.276-0.22,0.538-0.435,0.786-0.644c0.384-0.336,0.751-0.666,1.104-0.989
		c0.352-0.324,0.68-0.626,0.984-0.903c0.096-0.093,0.197-0.183,0.305-0.27c0.109-0.087,0.206-0.176,0.295-0.27
		c0.768-0.695,1.439-1.285,2.015-1.772c0.272-0.231,0.538-0.457,0.799-0.678c0.259-0.22,0.497-0.411,0.713-0.573l0.479-0.348V32.94
		c0.017,0.012,0.03,0.021,0.042,0.026c0.013,0.006,0.026,0.015,0.042,0.026l0.072-0.053c0.016-0.011,0.04-0.029,0.072-0.052
		c0.032-0.023,0.052-0.041,0.06-0.053l0.552,0.417c0.023,0.07,0.046,0.136,0.066,0.2c0.02,0.063,0.041,0.125,0.066,0.182
		c0.191,0.51,0.389,0.985,0.594,1.425c0.203,0.44,0.445,0.91,0.726,1.408c0.136,0.242,0.284,0.492,0.443,0.746
		c0.16,0.256,0.34,0.516,0.539,0.783c0.209,0.266,0.439,0.538,0.691,0.815c0.251,0.278,0.545,0.545,0.881,0.8
		c0.448,0.336,0.87,0.585,1.265,0.747c0.396,0.162,0.771,0.272,1.123,0.33c0.359,0.069,0.688,0.104,0.983,0.104
		c0.136,0,0.279-0.006,0.432-0.018c0.151-0.012,0.296-0.028,0.432-0.053c0.504-0.092,1.006-0.228,1.506-0.407
		c0.5-0.181,1.013-0.403,1.541-0.67c0.896-0.485,1.663-0.983,2.303-1.494c0.64-0.51,1.188-0.961,1.644-1.354h-0.012
		c0.464-0.429,0.851-0.803,1.158-1.121c0.307-0.319,0.569-0.594,0.785-0.825c0.216-0.244,0.396-0.446,0.54-0.608
		s0.268-0.306,0.371-0.435c0.097-0.115,0.188-0.223,0.271-0.321C234.626,33.389,234.723,33.282,234.835,33.166z M203.886,41.158
		c0.009,0,0.012,0.004,0.012,0.009c0,0.006,0.005,0.009,0.012,0.009C203.902,41.164,203.895,41.158,203.886,41.158z M203.935,41.28
		c0.007-0.023,0.012-0.047,0.012-0.069L203.935,41.28z"/>
</g>
</svg>
