<?xml version="1.0" encoding="utf-8"?>
<!DOCTYPE svg PUBLIC "-//W3C//DTD SVG 1.1//EN" "http://www.w3.org/Graphics/SVG/1.1/DTD/svg11.dtd">
<svg version="1.1" id="logo" xmlns="http://www.w3.org/2000/svg" xmlns:xlink="http://www.w3.org/1999/xlink" x="0px" y="0px"
	 width="75px" height="30px" viewBox="0 0 75 30" enable-background="new 0 0 75 30" xml:space="preserve">
<g>
	<path d="M7.344,23.496H0V6.72h6.528c1.136,0,2.116,0.136,2.94,0.408c0.824,0.272,1.436,0.64,1.836,1.104
		c0.768,0.864,1.152,1.84,1.152,2.928c0,1.312-0.417,2.288-1.248,2.928c-0.304,0.225-0.512,0.364-0.624,0.42
		c-0.112,0.056-0.312,0.148-0.6,0.276c1.04,0.224,1.868,0.692,2.484,1.403c0.616,0.713,0.924,1.598,0.924,2.652
		c0,1.168-0.4,2.201-1.2,3.096C11.248,22.977,9.632,23.496,7.344,23.496z M2.832,13.68h3.6c2.048,0,3.072-0.696,3.072-2.088
		c0-0.8-0.248-1.376-0.744-1.728S7.496,9.336,6.456,9.336H2.832V13.68z M2.832,20.881h4.44c1.04,0,1.836-0.164,2.388-0.492
		c0.552-0.328,0.828-0.949,0.828-1.859c0-1.489-1.192-2.233-3.576-2.233h-4.08V20.881z"/>
	<path d="M30.336,12.168c0,2.769-1.209,4.512-3.625,5.232l4.393,6.096h-3.6l-4.008-5.641h-3.721v5.641h-2.832V6.72h6.24
		c2.561,0,4.393,0.432,5.496,1.296C29.783,8.88,30.336,10.264,30.336,12.168z M26.568,14.544c0.576-0.496,0.863-1.292,0.863-2.388
		c0-1.096-0.297-1.848-0.889-2.256c-0.592-0.408-1.646-0.612-3.168-0.612h-3.6v6h3.529C24.904,15.288,25.992,15.04,26.568,14.544z"
		/>
	<path d="M34.416,6.72h2.832v16.776h-2.832V6.72z"/>
	<path d="M49.56,20.928c0.976,0,1.815-0.164,2.52-0.492c0.704-0.326,1.44-0.852,2.208-1.57l1.824,1.871
		c-1.776,1.969-3.933,2.951-6.468,2.951c-2.536,0-4.641-0.814-6.312-2.447s-2.508-3.695-2.508-6.192c0-2.496,0.852-4.576,2.556-6.24
		s3.856-2.496,6.456-2.496c2.601,0,4.772,0.96,6.517,2.88l-1.801,1.968c-0.8-0.768-1.556-1.304-2.268-1.608
		c-0.712-0.304-1.548-0.456-2.508-0.456c-1.696,0-3.12,0.548-4.272,1.644c-1.151,1.096-1.728,2.496-1.728,4.2
		c0,1.705,0.571,3.128,1.716,4.273C46.635,20.357,47.991,20.928,49.56,20.928z"/>
	<path d="M59.567,6.72h2.832v8.184l7.68-8.184h3.601l-6.744,7.344l6.84,9.432h-3.36l-5.567-7.344l-2.448,2.641v4.703h-2.832V6.72z"
		/>
</g>
</svg>
