<?xml version="1.0" encoding="utf-8"?>
<!DOCTYPE svg PUBLIC "-//W3C//DTD SVG 1.1//EN" "http://www.w3.org/Graphics/SVG/1.1/DTD/svg11.dtd">
<svg version="1.1" id="logo-contrast" xmlns="http://www.w3.org/2000/svg" xmlns:xlink="http://www.w3.org/1999/xlink" x="0px" y="0px"
	 width="75px" height="30px" viewBox="0 0 75 30" enable-background="new 0 0 75 30" xml:space="preserve">
<g>
	<path fill="#FFFFFF" d="M7.344,23.496H0V6.72h6.528c1.136,0,2.116,0.136,2.94,0.408c0.824,0.272,1.436,0.64,1.836,1.104
		c0.768,0.864,1.152,1.84,1.152,2.928c0,1.312-0.417,2.288-1.248,2.928c-0.304,0.225-0.512,0.364-0.624,0.42
		c-0.112,0.056-0.312,0.148-0.6,0.276c1.04,0.224,1.868,0.692,2.484,1.403c0.616,0.713,0.924,1.598,0.924,2.651
		c0,1.168-0.4,2.201-1.2,3.097C11.248,22.977,9.632,23.496,7.344,23.496z M2.832,13.68h3.6c2.048,0,3.072-0.696,3.072-2.088
		c0-0.8-0.248-1.376-0.744-1.728C8.264,9.512,7.496,9.336,6.456,9.336H2.832V13.68z M2.832,20.881h4.44
		c1.04,0,1.836-0.164,2.388-0.492c0.552-0.328,0.828-0.949,0.828-1.858c0-1.489-1.192-2.233-3.576-2.233h-4.08V20.881z"/>
	<path fill="#FFFFFF" d="M30.336,12.168c0,2.769-1.209,4.512-3.625,5.232l4.393,6.096h-3.6l-4.008-5.641h-3.721v5.641h-2.832V6.72
		h6.24c2.561,0,4.393,0.432,5.496,1.296C29.783,8.88,30.336,10.264,30.336,12.168z M26.568,14.544
		c0.576-0.496,0.863-1.292,0.863-2.388c0-1.096-0.297-1.848-0.889-2.256c-0.592-0.408-1.646-0.612-3.168-0.612h-3.6v6h3.529
		C24.904,15.288,25.992,15.04,26.568,14.544z"/>
	<path fill="#FFFFFF" d="M34.416,6.72h2.832v16.776h-2.832V6.72z"/>
	<path fill="#FFFFFF" d="M49.561,20.928c0.976,0,1.814-0.164,2.52-0.492c0.704-0.326,1.439-0.852,2.208-1.569l1.823,1.87
		c-1.775,1.97-3.932,2.951-6.467,2.951c-2.537,0-4.642-0.813-6.312-2.446c-1.671-1.634-2.508-3.695-2.508-6.192
		c0-2.496,0.852-4.576,2.556-6.24s3.856-2.496,6.456-2.496c2.602,0,4.771,0.96,6.518,2.88l-1.801,1.968
		c-0.801-0.768-1.557-1.304-2.269-1.608c-0.712-0.304-1.548-0.456-2.509-0.456c-1.695,0-3.119,0.548-4.271,1.644
		c-1.15,1.096-1.729,2.496-1.729,4.2c0,1.706,0.572,3.127,1.717,4.273C46.635,20.357,47.991,20.928,49.561,20.928z"/>
	<path fill="#FFFFFF" d="M59.566,6.72h2.832v8.184l7.681-8.184h3.601l-6.744,7.344l6.84,9.432h-3.359l-5.566-7.344L62.4,18.793
		v4.703h-2.832V6.72H59.566z"/>
</g>
</svg>
