<?xml version="1.0" standalone="no"?>
<!DOCTYPE svg PUBLIC "-//W3C//DTD SVG 20010904//EN"
 "http://www.w3.org/TR/2001/REC-SVG-20010904/DTD/svg10.dtd">
<svg version="1.0" xmlns="http://www.w3.org/2000/svg"
 width="323.000000pt" height="185.000000pt" viewBox="0 0 323.000000 185.000000"
 preserveAspectRatio="xMidYMid meet">
<metadata>
Created by potrace 1.15, written by Peter Selinger 2001-2017
</metadata>
<g transform="translate(0.000000,185.000000) scale(0.100000,-0.100000)"
fill="#000000" stroke="none">
<path d="M394 1429 c-49 -14 -125 -69 -161 -117 -63 -83 -78 -201 -36 -273 20
-34 86 -69 129 -69 41 1 104 32 139 69 27 29 28 33 13 47 -14 14 -22 15 -49 5
-139 -48 -214 81 -122 213 33 48 119 96 172 96 143 0 240 -118 213 -256 -20
-97 -73 -158 -252 -286 -126 -91 -198 -164 -238 -244 -29 -57 -52 -157 -52
-223 0 -28 3 -32 22 -29 16 2 25 13 32 37 13 46 67 101 99 101 33 0 63 -14
161 -72 91 -55 139 -71 187 -62 73 14 120 63 138 142 7 36 6 44 -6 49 -9 4
-20 -1 -25 -12 -41 -72 -107 -75 -258 -9 -121 53 -195 62 -244 30 -32 -20 -30
-14 22 57 40 55 118 113 252 186 177 97 230 150 257 258 36 152 -45 310 -184
357 -50 17 -159 20 -209 5z"/>
<path d="M1813 1392 c-77 -71 -103 -187 -110 -482 l-5 -225 -33 -65 c-40 -79
-87 -145 -114 -160 -17 -9 -23 -6 -37 15 -13 20 -16 50 -15 157 1 73 5 168 9
211 9 91 1 112 -40 102 -38 -10 -43 -19 -67 -114 -27 -107 -62 -185 -102 -222
-39 -36 -74 -40 -65 -6 61 209 39 337 -58 337 -104 0 -147 -155 -84 -303 12
-26 31 -56 44 -66 l23 -18 -34 -50 c-20 -30 -48 -57 -70 -67 -33 -16 -38 -16
-60 -2 -13 8 -26 29 -30 46 -4 18 1 124 11 236 16 186 16 206 2 220 -18 18
-69 12 -87 -10 -15 -18 -32 -177 -33 -316 -1 -106 2 -132 19 -172 12 -25 32
-52 45 -59 31 -18 117 -15 154 4 35 18 96 83 118 124 11 22 22 29 47 31 49 4
90 32 125 84 l32 47 4 -112 c5 -132 19 -169 72 -187 66 -21 115 17 191 151
l36 64 -6 -60 c-3 -33 -8 -73 -11 -90 -6 -38 12 -63 51 -70 52 -10 60 4 63
115 4 115 13 124 57 58 46 -70 118 -140 163 -160 74 -33 130 1 207 127 l36 60
-6 -85 c-8 -95 -3 -105 52 -116 43 -8 53 11 60 120 4 59 10 96 17 96 6 0 24
-21 40 -46 49 -77 127 -151 174 -163 82 -23 129 17 219 186 29 54 53 89 53 78
1 -68 21 -198 34 -223 22 -42 74 -59 118 -38 42 20 97 96 154 208 42 83 43 88
25 98 -18 9 -24 1 -63 -72 -50 -96 -107 -161 -132 -152 -31 12 -37 90 -22 336
9 164 6 173 -51 146 -24 -11 -30 -25 -50 -103 -40 -161 -172 -385 -226 -385
-22 0 -84 56 -125 113 l-32 45 63 29 c113 54 159 108 159 191 0 80 -61 128
-147 115 -54 -7 -89 -27 -146 -80 l-47 -44 29 74 c57 147 109 356 109 437 0
87 -77 118 -144 59 -71 -62 -104 -213 -113 -519 l-6 -205 -41 -73 c-39 -70
-99 -142 -118 -142 -26 0 -72 36 -112 89 -25 33 -46 64 -46 69 0 6 13 13 30
17 43 9 132 71 159 110 52 77 33 170 -42 200 -27 11 -53 14 -77 10 -53 -10
-128 -54 -167 -100 -20 -22 -31 -31 -25 -20 5 11 26 67 47 125 77 222 105 398
69 448 -23 33 -83 30 -121 -6z m74 -113 c-7 -90 -28 -196 -60 -299 l-23 -75 3
100 c6 160 21 302 38 341 13 32 17 35 31 23 14 -11 16 -27 11 -90z m564 12
c-1 -93 -54 -338 -77 -360 -8 -8 4 219 17 324 18 141 62 167 60 36z m-437
-422 c74 -34 44 -149 -52 -198 -32 -17 -113 -41 -138 -41 -18 0 -20 4 -14 54
7 66 45 124 108 166 50 33 60 35 96 19z m580 -10 c47 -37 29 -124 -35 -170
-32 -22 -136 -59 -170 -59 -16 0 -19 7 -19 43 0 66 62 153 135 191 40 21 57
20 89 -5z m-1404 -8 c21 -41 4 -241 -21 -241 -5 0 -19 19 -31 43 -27 50 -32
173 -9 200 18 23 48 21 61 -2z"/>
</g>
</svg>
